<svg viewBox="70 70 500 320" xmlns="http://www.w3.org/2000/svg" preserveAspectRatio="xMidYMid meet">
  <defs>
    <!-- Brand gradient -->
    <linearGradient id="curveGradient" x1="0%" y1="0%" x2="0%" y2="100%">
      <stop offset="0%" stop-color="#2563eb" stop-opacity="1" />
      <stop offset="50%" stop-color="#3b82f6" stop-opacity="1" />
      <stop offset="100%" stop-color="#6366f1" stop-opacity="1" />
    </linearGradient>

    <!-- Text gradient -->
    <linearGradient id="textGradient" x1="0%" y1="0%" x2="100%" y2="0%">
      <stop offset="0%" stop-color="#ffffff" stop-opacity="1" />
      <stop offset="50%" stop-color="#f0f9ff" stop-opacity="1" />
      <stop offset="100%" stop-color="#ffffff" stop-opacity="1" />
    </linearGradient>
  </defs>

  <!-- Background -->
  <rect width="640" height="420" fill="transparent" />

  <!-- Bell curve path -->
  <path d="M 80,335.46875 L 81.6,335.2671875 L 83.2,335.0640625 L 84.8,334.859375 L 86.4,334.6515625 L 88,334.4390625 L 89.6,334.2203125 L 91.2,333.9953125 L 92.8,333.7625 L 94.4,333.5234375 L 96,333.2765625 L 97.6,333.021875 L 99.2,332.759375 L 100.8,332.4890625 L 102.4,332.209375 L 104,331.9203125 L 105.6,331.621875 L 107.2,331.3125 L 108.8,330.9921875 L 110.4,330.6609375 L 112,330.31875 L 113.6,329.965625 L 115.2,329.6 L 116.8,329.221875 L 118.4,328.8328125 L 120,328.4296875 L 121.6,328.015625 L 123.2,327.5890625 L 124.8,327.1515625 L 126.4,326.7015625 L 128,326.2390625 L 129.6,325.765625 L 131.2,325.2796875 L 132.8,324.7828125 L 134.4,324.2734375 L 136,323.7515625 L 137.6,323.2171875 L 139.2,322.671875 L 140.8,322.1140625 L 142.4,321.5453125 L 144,320.9640625 L 145.6,320.3703125 L 147.2,319.765625 L 148.8,319.1484375 L 150.4,318.5203125 L 152,317.8796875 L 153.6,317.2296875 L 155.2,316.5671875 L 156.8,315.8953125 L 158.4,315.2125 L 160,314.5203125 L 161.6,313.8171875 L 163.2,313.1046875 L 164.8,312.3828125 L 166.4,311.6515625 L 168,310.9109375 L 169.6,310.1625 L 171.2,309.4046875 L 172.8,308.6390625 L 174.4,307.8640625 L 176,307.0828125 L 177.6,306.2921875 L 179.2,305.4953125 L 180.8,304.6890625 L 182.4,303.8765625 L 184,303.0578125 L 185.6,302.2328125 L 187.2,301.4015625 L 188.8,300.565625 L 190.4,299.7234375 L 192,298.8765625 L 193.6,298.0265625 L 195.2,297.171875 L 196.8,296.3125 L 198.4,295.4484375 L 200,294.5828125 L 201.6,293.7125 L 203.2,292.84375 L 204.8,291.9703125 L 206.4,291.0953125 L 208,290.21875 L 209.6,289.340625 L 211.2,288.4625 L 212.8,287.5828125 L 214.4,286.703125 L 216,285.8234375 L 217.6,284.9453125 L 219.2,284.0671875 L 220.8,283.1921875 L 222.4,282.3171875 L 224,281.4453125 L 225.6,280.5765625 L 227.2,279.7109375 L 228.8,278.8484375 L 230.4,277.990625 L 232,277.1359375 L 233.6,276.2859375 L 235.2,275.4421875 L 236.8,274.603125 L 238.4,273.7703125 L 240,272.9421875 L 241.6,272.1203125 L 243.2,271.3046875 L 244.8,270.4953125 L 246.4,269.6921875 L 248,268.8953125 L 249.6,268.1078125 L 251.2,267.3265625 L 252.8,266.553125 L 254.4,265.7875 L 256,265.0296875 L 257.6,264.2796875 L 259.2,263.5390625 L 260.8,262.8078125 L 262.4,262.0859375 L 264,261.3734375 L 265.6,260.6734375 L 267.2,259.9828125 L 268.8,259.3046875 L 270.4,258.6375 L 272,257.984375 L 273.6,257.34375 L 275.2,256.7171875 L 276.8,256.1046875 L 278.4,255.5078125 L 280,254.9265625 L 281.6,254.3609375 L 283.2,253.8125 L 284.8,253.2828125 L 286.4,252.771875 L 288,252.28125 L 289.6,251.8109375 L 291.2,251.3609375 L 292.8,250.9328125 L 294.4,250.5265625 L 296,250.1421875 L 297.6,249.78125 L 299.2,249.4421875 L 300.8,249.128125 L 302.4,248.8390625 L 304,248.575 L 305.6,248.3359375 L 307.2,248.1234375 L 308.8,247.9390625 L 310.4,247.78125 L 312,247.6515625 L 313.6,247.5515625 L 315.2,247.4828125 L 316.8,247.4453125 L 318.4,247.4390625 L 320,247.4640625 L 321.6,247.5234375 L 323.2,247.615625 L 324.8,247.7421875 L 326.4,247.903125 L 328,248.09375 L 329.6,248.3234375 L 331.2,248.5859375 L 332.8,248.8828125 L 334.4,249.21875 L 336,249.59375 L 337.6,250.0078125 L 339.2,250.4640625 L 340.8,250.9625 L 342.4,251.5046875 L 344,252.0921875 L 345.6,252.725 L 347.2,253.4046875 L 348.8,254.1328125 L 350.4,254.909375 L 352,255.734375 L 353.6,256.609375 L 355.2,257.534375 L 356.8,258.5109375 L 358.4,259.5390625 L 360,260.621875 L 361.6,261.7578125 L 363.2,262.9484375 L 364.8,264.1953125 L 366.4,265.5 L 368,266.8625 L 369.6,268.284375 L 371.2,269.7671875 L 372.8,271.3109375 L 374.4,272.9171875 L 376,274.5859375 L 377.6,276.3203125 L 379.2,278.1203125 L 380.8,279.9875 L 382.4,281.921875 L 384,283.9234375 L 385.6,285.9953125 L 387.2,288.1359375 L 388.8,290.3484375 L 390.4,292.6328125 L 392,294.9890625 L 393.6,297.4171875 L 395.2,299.9203125 L 396.8,302.4953125 L 398.4,305.1453125 L 400,307.8703125 L 401.6,310.6703125 L 403.2,313.546875 L 404.8,316.5 L 406.4,319.5296875 L 408,322.6359375 L 409.6,325.8203125 L 411.2,329.0828125 L 412.8,332.421875 L 414.4,335.8390625 L 416,339.334375 L 417.6,342.9046875 L 419.2,346.5484375 L 420.8,350.265625 L 422.4,354.053125 L 424,357.909375 L 425.6,361.8296875 L 427.2,365.8125 L 428.8,369.853125 L 430.4,373.9484375 L 432,378.0953125 L 433.6,382.290625 L 435.2,386.53125 L 436.8,390.8140625 L 438.4,395.1359375 L 440,399.4953125 L 441.6,403.8890625 L 443.2,408.3140625 L 444.8,412.7671875 L 446.4,417.246875 L 448,421.7515625 L 449.6,426.278125 L 451.2,430.8234375 L 452.8,435.3859375 L 454.4,439.9625 L 456,444.5515625 L 457.6,449.1484375 L 459.2,453.753125 L 460.8,458.3625 L 462.4,462.975 L 464,467.5875 L 465.6,472.196875 L 467.2,476.803125 L 468.8,481.403125 L 470.4,485.9953125 L 472,490.578125 L 473.6,495.1484375 L 475.2,499.7046875 L 476.8,504.2421875 L 478.4,508.7578125 L 480,513.2515625 L 481.6,517.721875 L 483.2,522.1671875 L 484.8,526.5875 L 486.4,530.9796875 L 488,535.3421875 L 489.6,539.675 L 491.2,543.9765625 L 492.8,548.246875 L 494.4,552.484375 L 496,556.6890625 L 497.6,560.859375 L 499.2,564.9953125 L 500.8,569.0953125 L 502.4,573.159375 L 504,577.1859375 L 505.6,581.175 L 507.2,585.1265625 L 508.8,589.0390625 L 510.4,592.9109375 L 512,596.7421875 L 513.6,600.5328125 L 515.2,604.2828125 L 516.8,607.9921875 L 518.4,611.659375 L 520,615.284375 L 521.6,618.8671875 L 523.2,622.4078125 L 524.8,625.9046875 L 526.4,629.359375 L 528,632.7703125 L 529.6,636.1375 L 531.2,639.4609375 L 532.8,642.7390625 L 534.4,645.9734375 L 536,649.1625 L 537.6,652.3078125 L 539.2,655.4078125 L 540.8,658.4625 L 542.4,661.4734375 L 544,664.4390625 L 545.6,667.359375 L 547.2,670.234375 L 548.8,673.0640625 L 550.4,675.8484375 L 552,678.5875 L 553.6,681.28125 L 555.2,683.9296875 L 556.8,686.5328125 L 558.4,689.090625 L 560,691.603125 L 560,340 L 80,340 Z" fill="url(#curveGradient)" />

  <!-- IIS Text -->
  <g text-anchor="middle" font-size="100" font-weight="900" fill="url(#textGradient)" font-family="Georgia, 'Times New Roman', serif" letter-spacing="-0.02em">
    <text x="260" y="275" dominant-baseline="middle">I</text>
    <text x="320" y="275" dominant-baseline="middle">I</text>
    <text x="380" y="275" dominant-baseline="middle">S</text>
  </g>
</svg>
